%TF.GenerationSoftware,KiCad,Pcbnew,7.0.9*%
%TF.CreationDate,2023-12-20T20:56:42+01:00*%
%TF.ProjectId,KITT_Voicebox_v1.0,4b495454-5f56-46f6-9963-65626f785f76,rev?*%
%TF.SameCoordinates,Original*%
%TF.FileFunction,Soldermask,Bot*%
%TF.FilePolarity,Negative*%
%FSLAX46Y46*%
G04 Gerber Fmt 4.6, Leading zero omitted, Abs format (unit mm)*
G04 Created by KiCad (PCBNEW 7.0.9) date 2023-12-20 20:56:42*
%MOMM*%
%LPD*%
G01*
G04 APERTURE LIST*
G04 Aperture macros list*
%AMRoundRect*
0 Rectangle with rounded corners*
0 $1 Rounding radius*
0 $2 $3 $4 $5 $6 $7 $8 $9 X,Y pos of 4 corners*
0 Add a 4 corners polygon primitive as box body*
4,1,4,$2,$3,$4,$5,$6,$7,$8,$9,$2,$3,0*
0 Add four circle primitives for the rounded corners*
1,1,$1+$1,$2,$3*
1,1,$1+$1,$4,$5*
1,1,$1+$1,$6,$7*
1,1,$1+$1,$8,$9*
0 Add four rect primitives between the rounded corners*
20,1,$1+$1,$2,$3,$4,$5,0*
20,1,$1+$1,$4,$5,$6,$7,0*
20,1,$1+$1,$6,$7,$8,$9,0*
20,1,$1+$1,$8,$9,$2,$3,0*%
G04 Aperture macros list end*
%ADD10C,0.400000*%
%ADD11C,0.250000*%
%ADD12R,2.032000X2.032000*%
%ADD13C,2.032000*%
%ADD14R,1.700000X1.700000*%
%ADD15O,1.700000X1.700000*%
%ADD16RoundRect,0.250000X0.450000X-0.350000X0.450000X0.350000X-0.450000X0.350000X-0.450000X-0.350000X0*%
%ADD17R,1.500000X0.600000*%
%ADD18RoundRect,0.150000X0.875000X0.150000X-0.875000X0.150000X-0.875000X-0.150000X0.875000X-0.150000X0*%
%ADD19RoundRect,0.250000X-0.337500X-0.475000X0.337500X-0.475000X0.337500X0.475000X-0.337500X0.475000X0*%
%ADD20RoundRect,0.250000X0.350000X0.450000X-0.350000X0.450000X-0.350000X-0.450000X0.350000X-0.450000X0*%
%ADD21RoundRect,0.250000X-0.350000X-0.450000X0.350000X-0.450000X0.350000X0.450000X-0.350000X0.450000X0*%
%ADD22RoundRect,0.250000X-0.475000X0.337500X-0.475000X-0.337500X0.475000X-0.337500X0.475000X0.337500X0*%
G04 APERTURE END LIST*
D10*
X109547000Y-62565000D02*
G75*
G03*
X109547000Y-62565000I-200000J0D01*
G01*
D11*
X105745428Y-104994901D02*
X105745428Y-104280615D01*
X105745428Y-104280615D02*
X106459714Y-104209187D01*
X106459714Y-104209187D02*
X106388285Y-104280615D01*
X106388285Y-104280615D02*
X106316857Y-104423473D01*
X106316857Y-104423473D02*
X106316857Y-104780615D01*
X106316857Y-104780615D02*
X106388285Y-104923473D01*
X106388285Y-104923473D02*
X106459714Y-104994901D01*
X106459714Y-104994901D02*
X106602571Y-105066330D01*
X106602571Y-105066330D02*
X106959714Y-105066330D01*
X106959714Y-105066330D02*
X107102571Y-104994901D01*
X107102571Y-104994901D02*
X107174000Y-104923473D01*
X107174000Y-104923473D02*
X107245428Y-104780615D01*
X107245428Y-104780615D02*
X107245428Y-104423473D01*
X107245428Y-104423473D02*
X107174000Y-104280615D01*
X107174000Y-104280615D02*
X107102571Y-104209187D01*
X105745428Y-105494901D02*
X107245428Y-105994901D01*
X107245428Y-105994901D02*
X105745428Y-106494901D01*
X108229857Y-105066330D02*
X108158428Y-104923473D01*
X108158428Y-104923473D02*
X108158428Y-104709187D01*
X108158428Y-104709187D02*
X108229857Y-104494901D01*
X108229857Y-104494901D02*
X108372714Y-104352044D01*
X108372714Y-104352044D02*
X108515571Y-104280615D01*
X108515571Y-104280615D02*
X108801285Y-104209187D01*
X108801285Y-104209187D02*
X109015571Y-104209187D01*
X109015571Y-104209187D02*
X109301285Y-104280615D01*
X109301285Y-104280615D02*
X109444142Y-104352044D01*
X109444142Y-104352044D02*
X109587000Y-104494901D01*
X109587000Y-104494901D02*
X109658428Y-104709187D01*
X109658428Y-104709187D02*
X109658428Y-104852044D01*
X109658428Y-104852044D02*
X109587000Y-105066330D01*
X109587000Y-105066330D02*
X109515571Y-105137758D01*
X109515571Y-105137758D02*
X109015571Y-105137758D01*
X109015571Y-105137758D02*
X109015571Y-104852044D01*
X109658428Y-105780615D02*
X108158428Y-105780615D01*
X108158428Y-105780615D02*
X109658428Y-106637758D01*
X109658428Y-106637758D02*
X108158428Y-106637758D01*
X109658428Y-107352044D02*
X108158428Y-107352044D01*
X108158428Y-107352044D02*
X108158428Y-107709187D01*
X108158428Y-107709187D02*
X108229857Y-107923473D01*
X108229857Y-107923473D02*
X108372714Y-108066330D01*
X108372714Y-108066330D02*
X108515571Y-108137759D01*
X108515571Y-108137759D02*
X108801285Y-108209187D01*
X108801285Y-108209187D02*
X109015571Y-108209187D01*
X109015571Y-108209187D02*
X109301285Y-108137759D01*
X109301285Y-108137759D02*
X109444142Y-108066330D01*
X109444142Y-108066330D02*
X109587000Y-107923473D01*
X109587000Y-107923473D02*
X109658428Y-107709187D01*
X109658428Y-107709187D02*
X109658428Y-107352044D01*
D12*
%TO.C,BAR3*%
X113000000Y-65000000D03*
D13*
X113000000Y-67540000D03*
X113000000Y-70080000D03*
X113000000Y-72620000D03*
X113000000Y-75160000D03*
X113000000Y-77700000D03*
X113000000Y-80240000D03*
X113000000Y-82780000D03*
X113000000Y-85320000D03*
X113000000Y-87860000D03*
X120620000Y-87860000D03*
X120620000Y-85320000D03*
X120620000Y-82780000D03*
X120620000Y-80240000D03*
X120620000Y-77700000D03*
X120620000Y-75160000D03*
X120620000Y-72620000D03*
X120620000Y-70080000D03*
X120620000Y-67540000D03*
X120620000Y-65000000D03*
%TD*%
D14*
%TO.C,J1*%
X109093000Y-99949000D03*
D15*
X106553000Y-99949000D03*
X109093000Y-97409000D03*
X106553000Y-97409000D03*
%TD*%
D12*
%TO.C,BAR6*%
X135000000Y-91000000D03*
D13*
X135000000Y-93540000D03*
X135000000Y-96080000D03*
X135000000Y-98620000D03*
X135000000Y-101160000D03*
X135000000Y-103700000D03*
X135000000Y-106240000D03*
X135000000Y-108780000D03*
X135000000Y-111320000D03*
X135000000Y-113860000D03*
X142620000Y-113860000D03*
X142620000Y-111320000D03*
X142620000Y-108780000D03*
X142620000Y-106240000D03*
X142620000Y-103700000D03*
X142620000Y-101160000D03*
X142620000Y-98620000D03*
X142620000Y-96080000D03*
X142620000Y-93540000D03*
X142620000Y-91000000D03*
%TD*%
D12*
%TO.C,BAR5*%
X135000000Y-65000000D03*
D13*
X135000000Y-67540000D03*
X135000000Y-70080000D03*
X135000000Y-72620000D03*
X135000000Y-75160000D03*
X135000000Y-77700000D03*
X135000000Y-80240000D03*
X135000000Y-82780000D03*
X135000000Y-85320000D03*
X135000000Y-87860000D03*
X142620000Y-87860000D03*
X142620000Y-85320000D03*
X142620000Y-82780000D03*
X142620000Y-80240000D03*
X142620000Y-77700000D03*
X142620000Y-75160000D03*
X142620000Y-72620000D03*
X142620000Y-70080000D03*
X142620000Y-67540000D03*
X142620000Y-65000000D03*
%TD*%
D12*
%TO.C,BAR2*%
X124000000Y-91000000D03*
D13*
X124000000Y-93540000D03*
X124000000Y-96080000D03*
X124000000Y-98620000D03*
X124000000Y-101160000D03*
X124000000Y-103700000D03*
X124000000Y-106240000D03*
X124000000Y-108780000D03*
X124000000Y-111320000D03*
X124000000Y-113860000D03*
X131620000Y-113860000D03*
X131620000Y-111320000D03*
X131620000Y-108780000D03*
X131620000Y-106240000D03*
X131620000Y-103700000D03*
X131620000Y-101160000D03*
X131620000Y-98620000D03*
X131620000Y-96080000D03*
X131620000Y-93540000D03*
X131620000Y-91000000D03*
%TD*%
D12*
%TO.C,BAR4*%
X113000000Y-91000000D03*
D13*
X113000000Y-93540000D03*
X113000000Y-96080000D03*
X113000000Y-98620000D03*
X113000000Y-101160000D03*
X113000000Y-103700000D03*
X113000000Y-106240000D03*
X113000000Y-108780000D03*
X113000000Y-111320000D03*
X113000000Y-113860000D03*
X120620000Y-113860000D03*
X120620000Y-111320000D03*
X120620000Y-108780000D03*
X120620000Y-106240000D03*
X120620000Y-103700000D03*
X120620000Y-101160000D03*
X120620000Y-98620000D03*
X120620000Y-96080000D03*
X120620000Y-93540000D03*
X120620000Y-91000000D03*
%TD*%
D12*
%TO.C,BAR1*%
X124000000Y-65000000D03*
D13*
X124000000Y-67540000D03*
X124000000Y-70080000D03*
X124000000Y-72620000D03*
X124000000Y-75160000D03*
X124000000Y-77700000D03*
X124000000Y-80240000D03*
X124000000Y-82780000D03*
X124000000Y-85320000D03*
X124000000Y-87860000D03*
X131620000Y-87860000D03*
X131620000Y-85320000D03*
X131620000Y-82780000D03*
X131620000Y-80240000D03*
X131620000Y-77700000D03*
X131620000Y-75160000D03*
X131620000Y-72620000D03*
X131620000Y-70080000D03*
X131620000Y-67540000D03*
X131620000Y-65000000D03*
%TD*%
D16*
%TO.C,R2*%
X98044000Y-83407000D03*
X98044000Y-81407000D03*
%TD*%
D17*
%TO.C,RN2*%
X100723000Y-90424000D03*
X100723000Y-89154000D03*
X100723000Y-87884000D03*
X100723000Y-86614000D03*
X100723000Y-85344000D03*
X100723000Y-84074000D03*
X100723000Y-82804000D03*
X100723000Y-81534000D03*
X107823000Y-81534000D03*
X107823000Y-82804000D03*
X107823000Y-84074000D03*
X107823000Y-85344000D03*
X107823000Y-86614000D03*
X107823000Y-87884000D03*
X107823000Y-89154000D03*
X107823000Y-90424000D03*
%TD*%
D18*
%TO.C,U1*%
X107569000Y-62484000D03*
X107569000Y-63754000D03*
X107569000Y-65024000D03*
X107569000Y-66294000D03*
X107569000Y-67564000D03*
X107569000Y-68834000D03*
X107569000Y-70104000D03*
X107569000Y-71374000D03*
X107569000Y-72644000D03*
X107569000Y-73914000D03*
X107569000Y-75184000D03*
X107569000Y-76454000D03*
X107569000Y-77724000D03*
X107569000Y-78994000D03*
X98269000Y-78994000D03*
X98269000Y-77724000D03*
X98269000Y-76454000D03*
X98269000Y-75184000D03*
X98269000Y-73914000D03*
X98269000Y-72644000D03*
X98269000Y-71374000D03*
X98269000Y-70104000D03*
X98269000Y-68834000D03*
X98269000Y-67564000D03*
X98269000Y-66294000D03*
X98269000Y-65024000D03*
X98269000Y-63754000D03*
X98269000Y-62484000D03*
%TD*%
D19*
%TO.C,C3*%
X106785500Y-102489000D03*
X108860500Y-102489000D03*
%TD*%
D20*
%TO.C,R3*%
X110855000Y-95123000D03*
X108855000Y-95123000D03*
%TD*%
D21*
%TO.C,R4*%
X104791000Y-95123000D03*
X106791000Y-95123000D03*
%TD*%
D22*
%TO.C,C1*%
X110744000Y-71098500D03*
X110744000Y-73173500D03*
%TD*%
M02*
