%TF.GenerationSoftware,KiCad,Pcbnew,7.0.9*%
%TF.CreationDate,2023-12-20T20:56:42+01:00*%
%TF.ProjectId,KITT_Voicebox_v1.0,4b495454-5f56-46f6-9963-65626f785f76,rev?*%
%TF.SameCoordinates,Original*%
%TF.FileFunction,Soldermask,Top*%
%TF.FilePolarity,Negative*%
%FSLAX46Y46*%
G04 Gerber Fmt 4.6, Leading zero omitted, Abs format (unit mm)*
G04 Created by KiCad (PCBNEW 7.0.9) date 2023-12-20 20:56:42*
%MOMM*%
%LPD*%
G01*
G04 APERTURE LIST*
G04 Aperture macros list*
%AMRoundRect*
0 Rectangle with rounded corners*
0 $1 Rounding radius*
0 $2 $3 $4 $5 $6 $7 $8 $9 X,Y pos of 4 corners*
0 Add a 4 corners polygon primitive as box body*
4,1,4,$2,$3,$4,$5,$6,$7,$8,$9,$2,$3,0*
0 Add four circle primitives for the rounded corners*
1,1,$1+$1,$2,$3*
1,1,$1+$1,$4,$5*
1,1,$1+$1,$6,$7*
1,1,$1+$1,$8,$9*
0 Add four rect primitives between the rounded corners*
20,1,$1+$1,$2,$3,$4,$5,0*
20,1,$1+$1,$4,$5,$6,$7,0*
20,1,$1+$1,$6,$7,$8,$9,0*
20,1,$1+$1,$8,$9,$2,$3,0*%
G04 Aperture macros list end*
%ADD10C,0.400000*%
%ADD11C,0.250000*%
%ADD12R,2.032000X2.032000*%
%ADD13C,2.032000*%
%ADD14R,1.700000X1.700000*%
%ADD15O,1.700000X1.700000*%
%ADD16R,1.500000X0.600000*%
%ADD17RoundRect,0.150000X0.875000X0.150000X-0.875000X0.150000X-0.875000X-0.150000X0.875000X-0.150000X0*%
%ADD18RoundRect,0.250000X0.475000X-0.337500X0.475000X0.337500X-0.475000X0.337500X-0.475000X-0.337500X0*%
%ADD19RoundRect,0.250000X-0.450000X0.350000X-0.450000X-0.350000X0.450000X-0.350000X0.450000X0.350000X0*%
G04 APERTURE END LIST*
D10*
X107261000Y-91694000D02*
G75*
G03*
X107261000Y-91694000I-200000J0D01*
G01*
D11*
X107233571Y-104105901D02*
X107233571Y-103391615D01*
X107233571Y-103391615D02*
X106519285Y-103320187D01*
X106519285Y-103320187D02*
X106590714Y-103391615D01*
X106590714Y-103391615D02*
X106662142Y-103534473D01*
X106662142Y-103534473D02*
X106662142Y-103891615D01*
X106662142Y-103891615D02*
X106590714Y-104034473D01*
X106590714Y-104034473D02*
X106519285Y-104105901D01*
X106519285Y-104105901D02*
X106376428Y-104177330D01*
X106376428Y-104177330D02*
X106019285Y-104177330D01*
X106019285Y-104177330D02*
X105876428Y-104105901D01*
X105876428Y-104105901D02*
X105805000Y-104034473D01*
X105805000Y-104034473D02*
X105733571Y-103891615D01*
X105733571Y-103891615D02*
X105733571Y-103534473D01*
X105733571Y-103534473D02*
X105805000Y-103391615D01*
X105805000Y-103391615D02*
X105876428Y-103320187D01*
X107233571Y-104605901D02*
X105733571Y-105105901D01*
X105733571Y-105105901D02*
X107233571Y-105605901D01*
X105733571Y-94755615D02*
X107233571Y-94755615D01*
X107233571Y-94755615D02*
X107233571Y-95112758D01*
X107233571Y-95112758D02*
X107162142Y-95327044D01*
X107162142Y-95327044D02*
X107019285Y-95469901D01*
X107019285Y-95469901D02*
X106876428Y-95541330D01*
X106876428Y-95541330D02*
X106590714Y-95612758D01*
X106590714Y-95612758D02*
X106376428Y-95612758D01*
X106376428Y-95612758D02*
X106090714Y-95541330D01*
X106090714Y-95541330D02*
X105947857Y-95469901D01*
X105947857Y-95469901D02*
X105805000Y-95327044D01*
X105805000Y-95327044D02*
X105733571Y-95112758D01*
X105733571Y-95112758D02*
X105733571Y-94755615D01*
X109702142Y-104177330D02*
X109773571Y-104034473D01*
X109773571Y-104034473D02*
X109773571Y-103820187D01*
X109773571Y-103820187D02*
X109702142Y-103605901D01*
X109702142Y-103605901D02*
X109559285Y-103463044D01*
X109559285Y-103463044D02*
X109416428Y-103391615D01*
X109416428Y-103391615D02*
X109130714Y-103320187D01*
X109130714Y-103320187D02*
X108916428Y-103320187D01*
X108916428Y-103320187D02*
X108630714Y-103391615D01*
X108630714Y-103391615D02*
X108487857Y-103463044D01*
X108487857Y-103463044D02*
X108345000Y-103605901D01*
X108345000Y-103605901D02*
X108273571Y-103820187D01*
X108273571Y-103820187D02*
X108273571Y-103963044D01*
X108273571Y-103963044D02*
X108345000Y-104177330D01*
X108345000Y-104177330D02*
X108416428Y-104248758D01*
X108416428Y-104248758D02*
X108916428Y-104248758D01*
X108916428Y-104248758D02*
X108916428Y-103963044D01*
X108273571Y-104891615D02*
X109773571Y-104891615D01*
X109773571Y-104891615D02*
X108273571Y-105748758D01*
X108273571Y-105748758D02*
X109773571Y-105748758D01*
X108273571Y-106463044D02*
X109773571Y-106463044D01*
X109773571Y-106463044D02*
X109773571Y-106820187D01*
X109773571Y-106820187D02*
X109702142Y-107034473D01*
X109702142Y-107034473D02*
X109559285Y-107177330D01*
X109559285Y-107177330D02*
X109416428Y-107248759D01*
X109416428Y-107248759D02*
X109130714Y-107320187D01*
X109130714Y-107320187D02*
X108916428Y-107320187D01*
X108916428Y-107320187D02*
X108630714Y-107248759D01*
X108630714Y-107248759D02*
X108487857Y-107177330D01*
X108487857Y-107177330D02*
X108345000Y-107034473D01*
X108345000Y-107034473D02*
X108273571Y-106820187D01*
X108273571Y-106820187D02*
X108273571Y-106463044D01*
X108543428Y-95612758D02*
X108472000Y-95541330D01*
X108472000Y-95541330D02*
X108400571Y-95327044D01*
X108400571Y-95327044D02*
X108400571Y-95184187D01*
X108400571Y-95184187D02*
X108472000Y-94969901D01*
X108472000Y-94969901D02*
X108614857Y-94827044D01*
X108614857Y-94827044D02*
X108757714Y-94755615D01*
X108757714Y-94755615D02*
X109043428Y-94684187D01*
X109043428Y-94684187D02*
X109257714Y-94684187D01*
X109257714Y-94684187D02*
X109543428Y-94755615D01*
X109543428Y-94755615D02*
X109686285Y-94827044D01*
X109686285Y-94827044D02*
X109829142Y-94969901D01*
X109829142Y-94969901D02*
X109900571Y-95184187D01*
X109900571Y-95184187D02*
X109900571Y-95327044D01*
X109900571Y-95327044D02*
X109829142Y-95541330D01*
X109829142Y-95541330D02*
X109757714Y-95612758D01*
X147119428Y-103491384D02*
X145619428Y-103491384D01*
X147119428Y-102634241D02*
X146262285Y-103277098D01*
X145619428Y-102634241D02*
X146476571Y-103491384D01*
X146976571Y-101991384D02*
X147048000Y-101919955D01*
X147048000Y-101919955D02*
X147119428Y-101991384D01*
X147119428Y-101991384D02*
X147048000Y-102062812D01*
X147048000Y-102062812D02*
X146976571Y-101991384D01*
X146976571Y-101991384D02*
X147119428Y-101991384D01*
X147119428Y-101277098D02*
X145619428Y-101277098D01*
X146976571Y-100562812D02*
X147048000Y-100491383D01*
X147048000Y-100491383D02*
X147119428Y-100562812D01*
X147119428Y-100562812D02*
X147048000Y-100634240D01*
X147048000Y-100634240D02*
X146976571Y-100562812D01*
X146976571Y-100562812D02*
X147119428Y-100562812D01*
X145619428Y-100062811D02*
X145619428Y-99205669D01*
X147119428Y-99634240D02*
X145619428Y-99634240D01*
X146976571Y-98705669D02*
X147048000Y-98634240D01*
X147048000Y-98634240D02*
X147119428Y-98705669D01*
X147119428Y-98705669D02*
X147048000Y-98777097D01*
X147048000Y-98777097D02*
X146976571Y-98705669D01*
X146976571Y-98705669D02*
X147119428Y-98705669D01*
X145619428Y-98205668D02*
X145619428Y-97348526D01*
X147119428Y-97777097D02*
X145619428Y-97777097D01*
X146976571Y-96848526D02*
X147048000Y-96777097D01*
X147048000Y-96777097D02*
X147119428Y-96848526D01*
X147119428Y-96848526D02*
X147048000Y-96919954D01*
X147048000Y-96919954D02*
X146976571Y-96848526D01*
X146976571Y-96848526D02*
X147119428Y-96848526D01*
X145619428Y-95205668D02*
X147119428Y-94705668D01*
X147119428Y-94705668D02*
X145619428Y-94205668D01*
X147119428Y-93491383D02*
X147048000Y-93634240D01*
X147048000Y-93634240D02*
X146976571Y-93705669D01*
X146976571Y-93705669D02*
X146833714Y-93777097D01*
X146833714Y-93777097D02*
X146405142Y-93777097D01*
X146405142Y-93777097D02*
X146262285Y-93705669D01*
X146262285Y-93705669D02*
X146190857Y-93634240D01*
X146190857Y-93634240D02*
X146119428Y-93491383D01*
X146119428Y-93491383D02*
X146119428Y-93277097D01*
X146119428Y-93277097D02*
X146190857Y-93134240D01*
X146190857Y-93134240D02*
X146262285Y-93062812D01*
X146262285Y-93062812D02*
X146405142Y-92991383D01*
X146405142Y-92991383D02*
X146833714Y-92991383D01*
X146833714Y-92991383D02*
X146976571Y-93062812D01*
X146976571Y-93062812D02*
X147048000Y-93134240D01*
X147048000Y-93134240D02*
X147119428Y-93277097D01*
X147119428Y-93277097D02*
X147119428Y-93491383D01*
X147119428Y-92348526D02*
X146119428Y-92348526D01*
X145619428Y-92348526D02*
X145690857Y-92419954D01*
X145690857Y-92419954D02*
X145762285Y-92348526D01*
X145762285Y-92348526D02*
X145690857Y-92277097D01*
X145690857Y-92277097D02*
X145619428Y-92348526D01*
X145619428Y-92348526D02*
X145762285Y-92348526D01*
X147048000Y-90991383D02*
X147119428Y-91134240D01*
X147119428Y-91134240D02*
X147119428Y-91419954D01*
X147119428Y-91419954D02*
X147048000Y-91562811D01*
X147048000Y-91562811D02*
X146976571Y-91634240D01*
X146976571Y-91634240D02*
X146833714Y-91705668D01*
X146833714Y-91705668D02*
X146405142Y-91705668D01*
X146405142Y-91705668D02*
X146262285Y-91634240D01*
X146262285Y-91634240D02*
X146190857Y-91562811D01*
X146190857Y-91562811D02*
X146119428Y-91419954D01*
X146119428Y-91419954D02*
X146119428Y-91134240D01*
X146119428Y-91134240D02*
X146190857Y-90991383D01*
X147048000Y-89777097D02*
X147119428Y-89919954D01*
X147119428Y-89919954D02*
X147119428Y-90205669D01*
X147119428Y-90205669D02*
X147048000Y-90348526D01*
X147048000Y-90348526D02*
X146905142Y-90419954D01*
X146905142Y-90419954D02*
X146333714Y-90419954D01*
X146333714Y-90419954D02*
X146190857Y-90348526D01*
X146190857Y-90348526D02*
X146119428Y-90205669D01*
X146119428Y-90205669D02*
X146119428Y-89919954D01*
X146119428Y-89919954D02*
X146190857Y-89777097D01*
X146190857Y-89777097D02*
X146333714Y-89705669D01*
X146333714Y-89705669D02*
X146476571Y-89705669D01*
X146476571Y-89705669D02*
X146619428Y-90419954D01*
X147119428Y-89062812D02*
X145619428Y-89062812D01*
X146190857Y-89062812D02*
X146119428Y-88919955D01*
X146119428Y-88919955D02*
X146119428Y-88634240D01*
X146119428Y-88634240D02*
X146190857Y-88491383D01*
X146190857Y-88491383D02*
X146262285Y-88419955D01*
X146262285Y-88419955D02*
X146405142Y-88348526D01*
X146405142Y-88348526D02*
X146833714Y-88348526D01*
X146833714Y-88348526D02*
X146976571Y-88419955D01*
X146976571Y-88419955D02*
X147048000Y-88491383D01*
X147048000Y-88491383D02*
X147119428Y-88634240D01*
X147119428Y-88634240D02*
X147119428Y-88919955D01*
X147119428Y-88919955D02*
X147048000Y-89062812D01*
X147119428Y-87491383D02*
X147048000Y-87634240D01*
X147048000Y-87634240D02*
X146976571Y-87705669D01*
X146976571Y-87705669D02*
X146833714Y-87777097D01*
X146833714Y-87777097D02*
X146405142Y-87777097D01*
X146405142Y-87777097D02*
X146262285Y-87705669D01*
X146262285Y-87705669D02*
X146190857Y-87634240D01*
X146190857Y-87634240D02*
X146119428Y-87491383D01*
X146119428Y-87491383D02*
X146119428Y-87277097D01*
X146119428Y-87277097D02*
X146190857Y-87134240D01*
X146190857Y-87134240D02*
X146262285Y-87062812D01*
X146262285Y-87062812D02*
X146405142Y-86991383D01*
X146405142Y-86991383D02*
X146833714Y-86991383D01*
X146833714Y-86991383D02*
X146976571Y-87062812D01*
X146976571Y-87062812D02*
X147048000Y-87134240D01*
X147048000Y-87134240D02*
X147119428Y-87277097D01*
X147119428Y-87277097D02*
X147119428Y-87491383D01*
X147119428Y-86491383D02*
X146119428Y-85705669D01*
X146119428Y-86491383D02*
X147119428Y-85705669D01*
X148534428Y-103634241D02*
X149534428Y-103277098D01*
X149534428Y-103277098D02*
X148534428Y-102919955D01*
X149534428Y-101562812D02*
X149534428Y-102419955D01*
X149534428Y-101991384D02*
X148034428Y-101991384D01*
X148034428Y-101991384D02*
X148248714Y-102134241D01*
X148248714Y-102134241D02*
X148391571Y-102277098D01*
X148391571Y-102277098D02*
X148463000Y-102419955D01*
X149391571Y-100919956D02*
X149463000Y-100848527D01*
X149463000Y-100848527D02*
X149534428Y-100919956D01*
X149534428Y-100919956D02*
X149463000Y-100991384D01*
X149463000Y-100991384D02*
X149391571Y-100919956D01*
X149391571Y-100919956D02*
X149534428Y-100919956D01*
X148034428Y-99919955D02*
X148034428Y-99777098D01*
X148034428Y-99777098D02*
X148105857Y-99634241D01*
X148105857Y-99634241D02*
X148177285Y-99562813D01*
X148177285Y-99562813D02*
X148320142Y-99491384D01*
X148320142Y-99491384D02*
X148605857Y-99419955D01*
X148605857Y-99419955D02*
X148963000Y-99419955D01*
X148963000Y-99419955D02*
X149248714Y-99491384D01*
X149248714Y-99491384D02*
X149391571Y-99562813D01*
X149391571Y-99562813D02*
X149463000Y-99634241D01*
X149463000Y-99634241D02*
X149534428Y-99777098D01*
X149534428Y-99777098D02*
X149534428Y-99919955D01*
X149534428Y-99919955D02*
X149463000Y-100062813D01*
X149463000Y-100062813D02*
X149391571Y-100134241D01*
X149391571Y-100134241D02*
X149248714Y-100205670D01*
X149248714Y-100205670D02*
X148963000Y-100277098D01*
X148963000Y-100277098D02*
X148605857Y-100277098D01*
X148605857Y-100277098D02*
X148320142Y-100205670D01*
X148320142Y-100205670D02*
X148177285Y-100134241D01*
X148177285Y-100134241D02*
X148105857Y-100062813D01*
X148105857Y-100062813D02*
X148034428Y-99919955D01*
X152520857Y-103062812D02*
X152449428Y-103134241D01*
X152449428Y-103134241D02*
X152235142Y-103277098D01*
X152235142Y-103277098D02*
X152092285Y-103348527D01*
X152092285Y-103348527D02*
X151878000Y-103419955D01*
X151878000Y-103419955D02*
X151520857Y-103491384D01*
X151520857Y-103491384D02*
X151235142Y-103491384D01*
X151235142Y-103491384D02*
X150878000Y-103419955D01*
X150878000Y-103419955D02*
X150663714Y-103348527D01*
X150663714Y-103348527D02*
X150520857Y-103277098D01*
X150520857Y-103277098D02*
X150306571Y-103134241D01*
X150306571Y-103134241D02*
X150235142Y-103062812D01*
X151878000Y-101848527D02*
X151949428Y-101991384D01*
X151949428Y-101991384D02*
X151949428Y-102277098D01*
X151949428Y-102277098D02*
X151878000Y-102419955D01*
X151878000Y-102419955D02*
X151806571Y-102491384D01*
X151806571Y-102491384D02*
X151663714Y-102562812D01*
X151663714Y-102562812D02*
X151235142Y-102562812D01*
X151235142Y-102562812D02*
X151092285Y-102491384D01*
X151092285Y-102491384D02*
X151020857Y-102419955D01*
X151020857Y-102419955D02*
X150949428Y-102277098D01*
X150949428Y-102277098D02*
X150949428Y-101991384D01*
X150949428Y-101991384D02*
X151020857Y-101848527D01*
X152520857Y-101348527D02*
X152449428Y-101277098D01*
X152449428Y-101277098D02*
X152235142Y-101134241D01*
X152235142Y-101134241D02*
X152092285Y-101062813D01*
X152092285Y-101062813D02*
X151878000Y-100991384D01*
X151878000Y-100991384D02*
X151520857Y-100919955D01*
X151520857Y-100919955D02*
X151235142Y-100919955D01*
X151235142Y-100919955D02*
X150878000Y-100991384D01*
X150878000Y-100991384D02*
X150663714Y-101062813D01*
X150663714Y-101062813D02*
X150520857Y-101134241D01*
X150520857Y-101134241D02*
X150306571Y-101277098D01*
X150306571Y-101277098D02*
X150235142Y-101348527D01*
X151949428Y-98205670D02*
X151235142Y-98705670D01*
X151949428Y-99062813D02*
X150449428Y-99062813D01*
X150449428Y-99062813D02*
X150449428Y-98491384D01*
X150449428Y-98491384D02*
X150520857Y-98348527D01*
X150520857Y-98348527D02*
X150592285Y-98277098D01*
X150592285Y-98277098D02*
X150735142Y-98205670D01*
X150735142Y-98205670D02*
X150949428Y-98205670D01*
X150949428Y-98205670D02*
X151092285Y-98277098D01*
X151092285Y-98277098D02*
X151163714Y-98348527D01*
X151163714Y-98348527D02*
X151235142Y-98491384D01*
X151235142Y-98491384D02*
X151235142Y-99062813D01*
X151878000Y-96991384D02*
X151949428Y-97134241D01*
X151949428Y-97134241D02*
X151949428Y-97419956D01*
X151949428Y-97419956D02*
X151878000Y-97562813D01*
X151878000Y-97562813D02*
X151735142Y-97634241D01*
X151735142Y-97634241D02*
X151163714Y-97634241D01*
X151163714Y-97634241D02*
X151020857Y-97562813D01*
X151020857Y-97562813D02*
X150949428Y-97419956D01*
X150949428Y-97419956D02*
X150949428Y-97134241D01*
X150949428Y-97134241D02*
X151020857Y-96991384D01*
X151020857Y-96991384D02*
X151163714Y-96919956D01*
X151163714Y-96919956D02*
X151306571Y-96919956D01*
X151306571Y-96919956D02*
X151449428Y-97634241D01*
X150949428Y-96491384D02*
X150949428Y-95919956D01*
X150449428Y-96277099D02*
X151735142Y-96277099D01*
X151735142Y-96277099D02*
X151878000Y-96205670D01*
X151878000Y-96205670D02*
X151949428Y-96062813D01*
X151949428Y-96062813D02*
X151949428Y-95919956D01*
X151949428Y-95205670D02*
X151878000Y-95348527D01*
X151878000Y-95348527D02*
X151806571Y-95419956D01*
X151806571Y-95419956D02*
X151663714Y-95491384D01*
X151663714Y-95491384D02*
X151235142Y-95491384D01*
X151235142Y-95491384D02*
X151092285Y-95419956D01*
X151092285Y-95419956D02*
X151020857Y-95348527D01*
X151020857Y-95348527D02*
X150949428Y-95205670D01*
X150949428Y-95205670D02*
X150949428Y-94991384D01*
X150949428Y-94991384D02*
X151020857Y-94848527D01*
X151020857Y-94848527D02*
X151092285Y-94777099D01*
X151092285Y-94777099D02*
X151235142Y-94705670D01*
X151235142Y-94705670D02*
X151663714Y-94705670D01*
X151663714Y-94705670D02*
X151806571Y-94777099D01*
X151806571Y-94777099D02*
X151878000Y-94848527D01*
X151878000Y-94848527D02*
X151949428Y-94991384D01*
X151949428Y-94991384D02*
X151949428Y-95205670D01*
X150592285Y-92991384D02*
X150520857Y-92919956D01*
X150520857Y-92919956D02*
X150449428Y-92777099D01*
X150449428Y-92777099D02*
X150449428Y-92419956D01*
X150449428Y-92419956D02*
X150520857Y-92277099D01*
X150520857Y-92277099D02*
X150592285Y-92205670D01*
X150592285Y-92205670D02*
X150735142Y-92134241D01*
X150735142Y-92134241D02*
X150878000Y-92134241D01*
X150878000Y-92134241D02*
X151092285Y-92205670D01*
X151092285Y-92205670D02*
X151949428Y-93062813D01*
X151949428Y-93062813D02*
X151949428Y-92134241D01*
X150449428Y-91205670D02*
X150449428Y-91062813D01*
X150449428Y-91062813D02*
X150520857Y-90919956D01*
X150520857Y-90919956D02*
X150592285Y-90848528D01*
X150592285Y-90848528D02*
X150735142Y-90777099D01*
X150735142Y-90777099D02*
X151020857Y-90705670D01*
X151020857Y-90705670D02*
X151378000Y-90705670D01*
X151378000Y-90705670D02*
X151663714Y-90777099D01*
X151663714Y-90777099D02*
X151806571Y-90848528D01*
X151806571Y-90848528D02*
X151878000Y-90919956D01*
X151878000Y-90919956D02*
X151949428Y-91062813D01*
X151949428Y-91062813D02*
X151949428Y-91205670D01*
X151949428Y-91205670D02*
X151878000Y-91348528D01*
X151878000Y-91348528D02*
X151806571Y-91419956D01*
X151806571Y-91419956D02*
X151663714Y-91491385D01*
X151663714Y-91491385D02*
X151378000Y-91562813D01*
X151378000Y-91562813D02*
X151020857Y-91562813D01*
X151020857Y-91562813D02*
X150735142Y-91491385D01*
X150735142Y-91491385D02*
X150592285Y-91419956D01*
X150592285Y-91419956D02*
X150520857Y-91348528D01*
X150520857Y-91348528D02*
X150449428Y-91205670D01*
X150592285Y-90134242D02*
X150520857Y-90062814D01*
X150520857Y-90062814D02*
X150449428Y-89919957D01*
X150449428Y-89919957D02*
X150449428Y-89562814D01*
X150449428Y-89562814D02*
X150520857Y-89419957D01*
X150520857Y-89419957D02*
X150592285Y-89348528D01*
X150592285Y-89348528D02*
X150735142Y-89277099D01*
X150735142Y-89277099D02*
X150878000Y-89277099D01*
X150878000Y-89277099D02*
X151092285Y-89348528D01*
X151092285Y-89348528D02*
X151949428Y-90205671D01*
X151949428Y-90205671D02*
X151949428Y-89277099D01*
X150949428Y-87991386D02*
X151949428Y-87991386D01*
X150378000Y-88348528D02*
X151449428Y-88705671D01*
X151449428Y-88705671D02*
X151449428Y-87777100D01*
D12*
%TO.C,BAR3*%
X113000000Y-65000000D03*
D13*
X113000000Y-67540000D03*
X113000000Y-70080000D03*
X113000000Y-72620000D03*
X113000000Y-75160000D03*
X113000000Y-77700000D03*
X113000000Y-80240000D03*
X113000000Y-82780000D03*
X113000000Y-85320000D03*
X113000000Y-87860000D03*
X120620000Y-87860000D03*
X120620000Y-85320000D03*
X120620000Y-82780000D03*
X120620000Y-80240000D03*
X120620000Y-77700000D03*
X120620000Y-75160000D03*
X120620000Y-72620000D03*
X120620000Y-70080000D03*
X120620000Y-67540000D03*
X120620000Y-65000000D03*
%TD*%
D14*
%TO.C,J1*%
X109093000Y-99949000D03*
D15*
X106553000Y-99949000D03*
X109093000Y-97409000D03*
X106553000Y-97409000D03*
%TD*%
D12*
%TO.C,BAR6*%
X135000000Y-91000000D03*
D13*
X135000000Y-93540000D03*
X135000000Y-96080000D03*
X135000000Y-98620000D03*
X135000000Y-101160000D03*
X135000000Y-103700000D03*
X135000000Y-106240000D03*
X135000000Y-108780000D03*
X135000000Y-111320000D03*
X135000000Y-113860000D03*
X142620000Y-113860000D03*
X142620000Y-111320000D03*
X142620000Y-108780000D03*
X142620000Y-106240000D03*
X142620000Y-103700000D03*
X142620000Y-101160000D03*
X142620000Y-98620000D03*
X142620000Y-96080000D03*
X142620000Y-93540000D03*
X142620000Y-91000000D03*
%TD*%
D16*
%TO.C,RN1*%
X100838000Y-62484000D03*
X100838000Y-63754000D03*
X100838000Y-65024000D03*
X100838000Y-66294000D03*
X100838000Y-67564000D03*
X100838000Y-68834000D03*
X100838000Y-70104000D03*
X100838000Y-71374000D03*
X107938000Y-71374000D03*
X107938000Y-70104000D03*
X107938000Y-68834000D03*
X107938000Y-67564000D03*
X107938000Y-66294000D03*
X107938000Y-65024000D03*
X107938000Y-63754000D03*
X107938000Y-62484000D03*
%TD*%
D12*
%TO.C,BAR5*%
X135000000Y-65000000D03*
D13*
X135000000Y-67540000D03*
X135000000Y-70080000D03*
X135000000Y-72620000D03*
X135000000Y-75160000D03*
X135000000Y-77700000D03*
X135000000Y-80240000D03*
X135000000Y-82780000D03*
X135000000Y-85320000D03*
X135000000Y-87860000D03*
X142620000Y-87860000D03*
X142620000Y-85320000D03*
X142620000Y-82780000D03*
X142620000Y-80240000D03*
X142620000Y-77700000D03*
X142620000Y-75160000D03*
X142620000Y-72620000D03*
X142620000Y-70080000D03*
X142620000Y-67540000D03*
X142620000Y-65000000D03*
%TD*%
D17*
%TO.C,U2*%
X107725000Y-90424000D03*
X107725000Y-89154000D03*
X107725000Y-87884000D03*
X107725000Y-86614000D03*
X107725000Y-85344000D03*
X107725000Y-84074000D03*
X107725000Y-82804000D03*
X107725000Y-81534000D03*
X107725000Y-80264000D03*
X107725000Y-78994000D03*
X107725000Y-77724000D03*
X107725000Y-76454000D03*
X107725000Y-75184000D03*
X107725000Y-73914000D03*
X98425000Y-73914000D03*
X98425000Y-75184000D03*
X98425000Y-76454000D03*
X98425000Y-77724000D03*
X98425000Y-78994000D03*
X98425000Y-80264000D03*
X98425000Y-81534000D03*
X98425000Y-82804000D03*
X98425000Y-84074000D03*
X98425000Y-85344000D03*
X98425000Y-86614000D03*
X98425000Y-87884000D03*
X98425000Y-89154000D03*
X98425000Y-90424000D03*
%TD*%
D16*
%TO.C,RN3*%
X154293000Y-71374000D03*
X154293000Y-70104000D03*
X154293000Y-68834000D03*
X154293000Y-67564000D03*
X154293000Y-66294000D03*
X154293000Y-65024000D03*
X154293000Y-63754000D03*
X154293000Y-62484000D03*
X147193000Y-62484000D03*
X147193000Y-63754000D03*
X147193000Y-65024000D03*
X147193000Y-66294000D03*
X147193000Y-67564000D03*
X147193000Y-68834000D03*
X147193000Y-70104000D03*
X147193000Y-71374000D03*
%TD*%
D18*
%TO.C,C2*%
X110236000Y-80666500D03*
X110236000Y-78591500D03*
%TD*%
D19*
%TO.C,R1*%
X98171000Y-69485000D03*
X98171000Y-71485000D03*
%TD*%
D12*
%TO.C,BAR2*%
X124000000Y-91000000D03*
D13*
X124000000Y-93540000D03*
X124000000Y-96080000D03*
X124000000Y-98620000D03*
X124000000Y-101160000D03*
X124000000Y-103700000D03*
X124000000Y-106240000D03*
X124000000Y-108780000D03*
X124000000Y-111320000D03*
X124000000Y-113860000D03*
X131620000Y-113860000D03*
X131620000Y-111320000D03*
X131620000Y-108780000D03*
X131620000Y-106240000D03*
X131620000Y-103700000D03*
X131620000Y-101160000D03*
X131620000Y-98620000D03*
X131620000Y-96080000D03*
X131620000Y-93540000D03*
X131620000Y-91000000D03*
%TD*%
D12*
%TO.C,BAR4*%
X113000000Y-91000000D03*
D13*
X113000000Y-93540000D03*
X113000000Y-96080000D03*
X113000000Y-98620000D03*
X113000000Y-101160000D03*
X113000000Y-103700000D03*
X113000000Y-106240000D03*
X113000000Y-108780000D03*
X113000000Y-111320000D03*
X113000000Y-113860000D03*
X120620000Y-113860000D03*
X120620000Y-111320000D03*
X120620000Y-108780000D03*
X120620000Y-106240000D03*
X120620000Y-103700000D03*
X120620000Y-101160000D03*
X120620000Y-98620000D03*
X120620000Y-96080000D03*
X120620000Y-93540000D03*
X120620000Y-91000000D03*
%TD*%
D12*
%TO.C,BAR1*%
X124000000Y-65000000D03*
D13*
X124000000Y-67540000D03*
X124000000Y-70080000D03*
X124000000Y-72620000D03*
X124000000Y-75160000D03*
X124000000Y-77700000D03*
X124000000Y-80240000D03*
X124000000Y-82780000D03*
X124000000Y-85320000D03*
X124000000Y-87860000D03*
X131620000Y-87860000D03*
X131620000Y-85320000D03*
X131620000Y-82780000D03*
X131620000Y-80240000D03*
X131620000Y-77700000D03*
X131620000Y-75160000D03*
X131620000Y-72620000D03*
X131620000Y-70080000D03*
X131620000Y-67540000D03*
X131620000Y-65000000D03*
%TD*%
M02*
