M48
; DRILL file {KiCad 7.0.9} date Wed Dec 20 20:56:47 2023
; FORMAT={-:-/ absolute / inch / decimal}
; #@! TF.CreationDate,2023-12-20T20:56:47+01:00
; #@! TF.GenerationSoftware,Kicad,Pcbnew,7.0.9
; #@! TF.FileFunction,Plated,1,2,PTH
FMAT,2
INCH
; #@! TA.AperFunction,Plated,PTH,ViaDrill
T1C0.0157
; #@! TA.AperFunction,Plated,PTH,ViaDrill
T2C0.0197
; #@! TA.AperFunction,Plated,PTH,ComponentDrill
T3C0.0360
; #@! TA.AperFunction,Plated,PTH,ComponentDrill
T4C0.0394
%
G90
G05
T1
X3.939Y-3.1092
X3.96Y-2.91
X3.96Y-2.96
X3.96Y-3.655
X4.02Y-3.01
X4.0215Y-3.655
X4.075Y-3.26
X4.075Y-3.31
X4.075Y-3.36
X4.075Y-3.41
X4.075Y-3.46
X4.075Y-3.51
X4.075Y-3.56
X4.0815Y-3.6535
X4.13Y-2.46
X4.13Y-2.51
X4.13Y-2.56
X4.13Y-2.61
X4.13Y-2.66
X4.13Y-2.71
X4.13Y-2.76
X4.13Y-2.81
X4.16Y-3.01
X4.175Y-3.06
X4.305Y-2.51
X4.305Y-2.61
X4.305Y-2.71
X4.305Y-2.795
X4.315Y-2.95
X4.355Y-3.61
X4.5906Y-3.36
X4.6083Y-3.2589
X4.626Y-3.16
X4.6438Y-3.06
X4.6615Y-2.96
X4.9725Y-3.36
X4.9902Y-3.26
X5.0079Y-3.16
X5.0256Y-3.06
X5.0433Y-2.96
X5.061Y-2.86
X5.0788Y-2.76
X5.1178Y-2.5828
X5.4628Y-3.36
X5.4805Y-3.26
X5.4982Y-3.16
X5.5159Y-3.06
X5.5336Y-2.9591
X5.74Y-2.465
X5.74Y-2.56
X5.74Y-2.66
X5.74Y-2.76
X5.955Y-2.76
X5.985Y-2.66
X6.015Y-2.46
X6.015Y-2.56
T2
X4.06Y-2.86
X4.115Y-2.91
X4.175Y-3.66
X4.2858Y-4.4258
T3
X4.4488Y-2.5591
X4.4488Y-2.6591
X4.4488Y-2.7591
X4.4488Y-2.8591
X4.4488Y-2.9591
X4.4488Y-3.0591
X4.4488Y-3.1591
X4.4488Y-3.2591
X4.4488Y-3.3591
X4.4488Y-3.4591
X4.4488Y-3.5827
X4.4488Y-3.6827
X4.4488Y-3.7827
X4.4488Y-3.8827
X4.4488Y-3.9827
X4.4488Y-4.0827
X4.4488Y-4.1827
X4.4488Y-4.2827
X4.4488Y-4.3827
X4.4488Y-4.4827
X4.7488Y-2.5591
X4.7488Y-2.6591
X4.7488Y-2.7591
X4.7488Y-2.8591
X4.7488Y-2.9591
X4.7488Y-3.0591
X4.7488Y-3.1591
X4.7488Y-3.2591
X4.7488Y-3.3591
X4.7488Y-3.4591
X4.7488Y-3.5827
X4.7488Y-3.6827
X4.7488Y-3.7827
X4.7488Y-3.8827
X4.7488Y-3.9827
X4.7488Y-4.0827
X4.7488Y-4.1827
X4.7488Y-4.2827
X4.7488Y-4.3827
X4.7488Y-4.4827
X4.8819Y-2.5591
X4.8819Y-2.6591
X4.8819Y-2.7591
X4.8819Y-2.8591
X4.8819Y-2.9591
X4.8819Y-3.0591
X4.8819Y-3.1591
X4.8819Y-3.2591
X4.8819Y-3.3591
X4.8819Y-3.4591
X4.8819Y-3.5827
X4.8819Y-3.6827
X4.8819Y-3.7827
X4.8819Y-3.8827
X4.8819Y-3.9827
X4.8819Y-4.0827
X4.8819Y-4.1827
X4.8819Y-4.2827
X4.8819Y-4.3827
X4.8819Y-4.4827
X5.1819Y-2.5591
X5.1819Y-2.6591
X5.1819Y-2.7591
X5.1819Y-2.8591
X5.1819Y-2.9591
X5.1819Y-3.0591
X5.1819Y-3.1591
X5.1819Y-3.2591
X5.1819Y-3.3591
X5.1819Y-3.4591
X5.1819Y-3.5827
X5.1819Y-3.6827
X5.1819Y-3.7827
X5.1819Y-3.8827
X5.1819Y-3.9827
X5.1819Y-4.0827
X5.1819Y-4.1827
X5.1819Y-4.2827
X5.1819Y-4.3827
X5.1819Y-4.4827
X5.315Y-2.5591
X5.315Y-2.6591
X5.315Y-2.7591
X5.315Y-2.8591
X5.315Y-2.9591
X5.315Y-3.0591
X5.315Y-3.1591
X5.315Y-3.2591
X5.315Y-3.3591
X5.315Y-3.4591
X5.315Y-3.5827
X5.315Y-3.6827
X5.315Y-3.7827
X5.315Y-3.8827
X5.315Y-3.9827
X5.315Y-4.0827
X5.315Y-4.1827
X5.315Y-4.2827
X5.315Y-4.3827
X5.315Y-4.4827
X5.615Y-2.5591
X5.615Y-2.6591
X5.615Y-2.7591
X5.615Y-2.8591
X5.615Y-2.9591
X5.615Y-3.0591
X5.615Y-3.1591
X5.615Y-3.2591
X5.615Y-3.3591
X5.615Y-3.4591
X5.615Y-3.5827
X5.615Y-3.6827
X5.615Y-3.7827
X5.615Y-3.8827
X5.615Y-3.9827
X5.615Y-4.0827
X5.615Y-4.1827
X5.615Y-4.2827
X5.615Y-4.3827
X5.615Y-4.4827
T4
X4.195Y-3.835
X4.195Y-3.935
X4.295Y-3.835
X4.295Y-3.935
T0
M30
